# xmcd CD database file
# Copyright (C) 1993-1998 Ti Kan
# 
# Track frame offsets:
#     150
#     20020
#     35815
#     62370
#     84050
# 
# Disc length: 1355 seconds
# 
# Revision: 1
# Processed by: cddbd v1.4b41PL1 Copyright (c) Steve Scherf et al.
# Submitted via: DiscPlay 4.0.4
# 
DISCID=32054905
DTITLE=Marty Sobb and The Mobb - No U Turn
DYEAR=1900
DGENRE=
TTITLE0=What I'm A Gonna Do
TTITLE1=Tan Party Van
TTITLE2=Could've Been The End
TTITLE3=Turning Us Down
TTITLE4=Tough Times
EXTD=
EXTT0=
EXTT1=
EXTT2=
EXTT3=
EXTT4=
PLAYORDER=
